<svg width="14" height="15" viewBox="0 0 14 15" fill="none" xmlns="http://www.w3.org/2000/svg">
<path d="M6.38264 1.25537C6.59597 0.692707 7.40331 0.692707 7.61731 1.25537L8.99731 5.07804C9.09397 5.33137 9.33997 5.50004 9.61464 5.50004H13.006C13.6326 5.50004 13.906 6.28004 13.4133 6.66204L11 8.83337C10.8919 8.91648 10.8129 9.03169 10.7743 9.16248C10.7357 9.29327 10.7396 9.43291 10.7853 9.56137L11.6666 13.2967C11.8813 13.8967 11.1866 14.412 10.6613 14.0427L7.38331 11.9627C7.27105 11.8838 7.13718 11.8415 6.99997 11.8415C6.86277 11.8415 6.7289 11.8838 6.61664 11.9627L3.33864 14.0427C2.81397 14.412 2.11864 13.896 2.33331 13.2967L3.21464 9.56137C3.26036 9.43291 3.26421 9.29327 3.22565 9.16248C3.18708 9.03169 3.10808 8.91648 2.99997 8.83337L0.586641 6.66204C0.0933081 6.28004 0.367975 5.50004 0.993308 5.50004H4.38464C4.51817 5.50049 4.64869 5.46038 4.75892 5.38502C4.86915 5.30967 4.95391 5.20262 5.00197 5.07804L6.38197 1.25537H6.38264Z" stroke="#C4CDD5" stroke-width="0.5" stroke-linecap="round" stroke-linejoin="round"/>
</svg>
